<svg xmlns="http://www.w3.org/2000/svg" viewBox="0 0 74 78"><path d="M28.49 2.75c8.07-1.04 16.84-1.33 24.26 2.55a38.18 38.18 0 0 1 18 18.86c2.68 6.25 2.1 13.24 2.03 19.88-.01 7.79-4.27 14.82-9.29 20.47-7.41 7.4-17.95 11.98-28.51 11.26-15.06-.8-29.21-11.71-33.12-26.4-1.03-5.39-.77-10.92-.58-16.36.21-6.74 3.43-12.99 7.69-18.06 5.05-5.91 11.87-10.53 19.52-12.2m-1.12 2.6c-9.42 2.21-16.68 9.61-21.3 17.8-3.49 5.98-3.82 13.15-3.37 19.9.42 5.82 3.11 11.17 6.23 15.99 3.34 5.15 8.87 8.31 14.32 10.8 11.68 5.05 25.75 2.92 35.83-4.69 4.93-3.3 7.87-8.66 10.2-13.96 2.49-5.69 2.44-12.09 1.85-18.16-.68-6.66-4.3-12.59-8.62-17.54-4.32-5.05-10.13-9.02-16.71-10.33a51.2 51.2 0 0 0-18.43.19Z"/><path d="M24.76 16.84c5.65-3.1 12.52-4.35 18.75-2.34 6.67 1.62 11.94 6.52 15.55 12.17-9.4.69-18.69-2.19-28.08-.9a90.61 90.61 0 0 1-16.04.9c2.59-3.86 5.71-7.52 9.82-9.83m1.47 1.32c-2.84 1.5-6.44 3.25-6.57 6.93 5.8.21 11.54-.89 17.34-.81 5.79-.08 11.54 1.03 17.34.81-.36-1.34-.43-2.92-1.7-3.77a24.36 24.36 0 0 0-26.41-3.16ZM13.16 43.19c2.71.05 5.62.06 7.93 1.7 6.05 3.78 11.44 10.62 9.82 18.18-9.82-.84-17.98-10.05-17.75-19.88m3.86 2.4a4.7 4.7 0 0 0-.56 5.78c2.8 4.93 7.78 9.74 13.91 8.98-.52-2.46-1.14-4.97-2.63-7.05-2.55-3.64-5.98-7.41-10.72-7.71ZM52.91 44.89c2.31-1.64 5.22-1.66 7.93-1.7.23 9.83-7.94 19.03-17.75 19.88-1.62-7.56 3.77-14.4 9.82-18.18m-.7 2.27c-4.4 3.08-7.83 7.78-8.58 13.19 6.14.78 11.1-4.06 13.91-8.98a4.7 4.7 0 0 0-.56-5.78c-1.64.31-3.39.53-4.77 1.57Z"/><g fill="#fff"><path d="M27.37 5.35a51.2 51.2 0 0 1 18.43-.19c6.58 1.31 12.39 5.28 16.71 10.33 4.32 4.95 7.94 10.88 8.62 17.54.59 6.07.64 12.47-1.85 18.16-2.33 5.3-5.27 10.66-10.2 13.96-10.08 7.61-24.15 9.74-35.83 4.69-5.45-2.49-10.98-5.65-14.32-10.8-3.12-4.82-5.81-10.17-6.23-15.99-.45-6.75-.12-13.92 3.37-19.9 4.62-8.19 11.88-15.59 21.3-17.8m-2.61 11.49c-4.11 2.31-7.23 5.97-9.82 9.83 5.36.21 10.73-.16 16.04-.9 9.39-1.29 18.68 1.59 28.08.9-3.61-5.65-8.88-10.55-15.55-12.17-6.23-2.01-13.1-.76-18.75 2.34m8.83 13.85c-2.51.82-4.93 2.78-5.27 5.54-.53 3.39-.34 7.53 2.55 9.86 2.9 2.26 7.07 2.21 10.43 1.11 4.82-1.94 5.41-8.21 3.93-12.54-2.04-4.13-7.53-5.34-11.64-3.97m-20.43 12.5c-.23 9.83 7.93 19.04 17.75 19.88 1.62-7.56-3.77-14.4-9.82-18.18-2.31-1.64-5.22-1.65-7.93-1.7m39.75 1.7c-6.05 3.78-11.44 10.62-9.82 18.18 9.81-.85 17.98-10.05 17.75-19.88-2.71.04-5.62.06-7.93 1.7Z"/><path d="M34.3 32.94c3.48-1.24 7.87.13 9.42 3.64 1.97 3.59-1.28 7.41-4.32 9.08-3.55 2.08-7.4-1.24-9.06-4.26-1.96-3.24.72-7.37 3.96-8.46Z"/></g><path fill="#28aCF3" d="M33.59 30.69c4.11-1.37 9.6-.16 11.64 3.97 1.48 4.33.89 10.6-3.93 12.54-3.36 1.1-7.53 1.15-10.43-1.11-2.89-2.33-3.08-6.47-2.55-9.86.34-2.76 2.76-4.72 5.27-5.54m.71 2.25c-3.24 1.09-5.92 5.22-3.96 8.46 1.66 3.02 5.51 6.34 9.06 4.26 3.04-1.67 6.29-5.49 4.32-9.08-1.55-3.51-5.94-4.88-9.42-3.64Z"/></svg>
