<?xml version="1.0" encoding="UTF-8" ?>
<!DOCTYPE svg PUBLIC "-//W3C//DTD SVG 1.1//EN" "http://www.w3.org/Graphics/SVG/1.1/DTD/svg11.dtd">
<svg width="74pt" height="78pt" viewBox="0 0 74 78" version="1.1" xmlns="http://www.w3.org/2000/svg">
<g id="#000000ff">
<path fill="#000000" opacity="1.00" d=" M 28.49 2.75 C 36.56 1.71 45.33 1.42 52.75 5.30 C 60.68 9.24 67.25 16.00 70.75 24.16 C 73.43 30.41 72.85 37.40 72.78 44.04 C 72.77 51.83 68.51 58.86 63.49 64.51 C 56.08 71.91 45.54 76.49 34.98 75.77 C 19.92 74.97 5.77 64.06 1.86 49.37 C 0.83 43.98 1.09 38.45 1.28 33.01 C 1.49 26.27 4.71 20.02 8.97 14.95 C 14.02 9.04 20.84 4.42 28.49 2.75 M 27.37 5.35 C 17.95 7.56 10.69 14.96 6.07 23.15 C 2.58 29.13 2.25 36.30 2.70 43.05 C 3.12 48.87 5.81 54.22 8.93 59.04 C 12.27 64.19 17.80 67.35 23.25 69.84 C 34.93 74.89 49.00 72.76 59.08 65.15 C 64.01 61.85 66.95 56.49 69.28 51.19 C 71.77 45.50 71.72 39.10 71.13 33.03 C 70.45 26.37 66.83 20.44 62.51 15.49 C 58.19 10.44 52.38 6.47 45.80 5.16 C 39.73 4.16 33.41 4.12 27.37 5.35 Z" />
<path fill="#000000" opacity="1.00" d=" M 24.76 16.84 C 30.41 13.74 37.28 12.49 43.51 14.50 C 50.18 16.12 55.45 21.02 59.06 26.67 C 49.66 27.36 40.37 24.48 30.98 25.77 C 25.67 26.51 20.30 26.88 14.94 26.67 C 17.53 22.81 20.65 19.15 24.76 16.84 M 26.23 18.16 C 23.39 19.66 19.79 21.41 19.66 25.09 C 25.46 25.30 31.20 24.20 37.00 24.28 C 42.79 24.20 48.54 25.31 54.34 25.09 C 53.98 23.75 53.91 22.17 52.64 21.32 C 45.49 15.17 34.63 13.85 26.23 18.16 Z" />
<path fill="#000000" opacity="1.00" d=" M 13.16 43.19 C 15.87 43.24 18.78 43.25 21.09 44.89 C 27.14 48.67 32.53 55.51 30.91 63.07 C 21.09 62.23 12.93 53.02 13.16 43.19 M 17.02 45.59 C 15.56 47.20 15.25 49.52 16.46 51.37 C 19.26 56.30 24.24 61.11 30.37 60.35 C 29.85 57.89 29.23 55.38 27.74 53.30 C 25.19 49.66 21.76 45.89 17.02 45.59 Z" />
<path fill="#000000" opacity="1.00" d=" M 52.91 44.89 C 55.22 43.25 58.13 43.23 60.84 43.19 C 61.07 53.02 52.90 62.22 43.09 63.07 C 41.47 55.51 46.86 48.67 52.91 44.89 M 52.21 47.16 C 47.81 50.24 44.38 54.94 43.63 60.35 C 49.77 61.13 54.73 56.29 57.54 51.37 C 58.75 49.52 58.44 47.20 56.98 45.59 C 55.34 45.90 53.59 46.12 52.21 47.16 Z" />
</g>
<g id="#ffffffff">
<path fill="#ffffff" opacity="1.00" d=" M 27.37 5.35 C 33.41 4.12 39.73 4.16 45.80 5.16 C 52.38 6.47 58.19 10.44 62.51 15.49 C 66.83 20.44 70.45 26.37 71.13 33.03 C 71.72 39.10 71.77 45.50 69.28 51.19 C 66.95 56.49 64.01 61.85 59.08 65.15 C 49.00 72.76 34.93 74.89 23.25 69.84 C 17.80 67.35 12.27 64.19 8.93 59.04 C 5.81 54.22 3.12 48.87 2.70 43.05 C 2.25 36.30 2.58 29.13 6.07 23.15 C 10.69 14.96 17.95 7.56 27.37 5.35 M 24.76 16.84 C 20.65 19.15 17.53 22.81 14.94 26.67 C 20.30 26.88 25.67 26.51 30.98 25.77 C 40.37 24.48 49.66 27.36 59.06 26.67 C 55.45 21.02 50.18 16.12 43.51 14.50 C 37.28 12.49 30.41 13.74 24.76 16.84 M 33.59 30.69 C 31.08 31.51 28.66 33.47 28.32 36.23 C 27.79 39.62 27.98 43.76 30.87 46.09 C 33.77 48.35 37.94 48.30 41.30 47.20 C 46.12 45.26 46.71 38.99 45.23 34.66 C 43.19 30.53 37.70 29.32 33.59 30.69 M 13.16 43.19 C 12.93 53.02 21.09 62.23 30.91 63.07 C 32.53 55.51 27.14 48.67 21.09 44.89 C 18.78 43.25 15.87 43.24 13.16 43.19 M 52.91 44.89 C 46.86 48.67 41.47 55.51 43.09 63.07 C 52.90 62.22 61.07 53.02 60.84 43.19 C 58.13 43.23 55.22 43.25 52.91 44.89 Z" />
<path fill="#ffffff" opacity="1.00" d=" M 34.30 32.94 C 37.78 31.70 42.17 33.07 43.72 36.58 C 45.69 40.17 42.44 43.99 39.40 45.66 C 35.85 47.74 32.00 44.42 30.34 41.40 C 28.38 38.16 31.06 34.03 34.30 32.94 Z" />
</g>
<g id="#b6edffff">
<path fill="#b6edff" opacity="1.00" d=" M 33.59 30.69 C 37.70 29.32 43.19 30.53 45.23 34.66 C 46.71 38.99 46.12 45.26 41.30 47.20 C 37.94 48.30 33.77 48.35 30.87 46.09 C 27.98 43.76 27.79 39.62 28.32 36.23 C 28.66 33.47 31.08 31.51 33.59 30.69 M 34.30 32.94 C 31.06 34.03 28.38 38.16 30.34 41.40 C 32.00 44.42 35.85 47.74 39.40 45.66 C 42.44 43.99 45.69 40.17 43.72 36.58 C 42.17 33.07 37.78 31.70 34.30 32.94 Z" />
</g>
</svg>
